<svg width="30" height="18" viewBox="0 0 30 18" fill="none" xmlns="http://www.w3.org/2000/svg">
<path d="M29.9996 8.9998C29.9996 13.9521 25.9997 17.9996 20.9998 17.9996C16.0475 17.9996 12 13.9521 12 8.9998C12 4.04753 15.9999 0 20.9522 0C25.9997 0 29.9996 4.04753 29.9996 8.9998Z" fill="#FFB600"/>
<path d="M20.9998 0C25.9521 0 29.9996 4.04753 29.9996 8.9998C29.9996 13.9521 25.9997 17.9996 20.9998 17.9996C16.0475 17.9996 12 13.9521 12 8.9998" fill="#F7981D"/>
<path d="M20.9998 0C25.952 0 29.9996 4.04753 29.9996 8.9998C29.9996 13.9521 25.9996 17.9996 20.9998 17.9996" fill="#FF8500"/>
<path d="M8.90456 0C3.99991 0.047618 0 4.04753 0 8.9998C0 13.9521 3.99991 17.9996 8.99979 17.9996C11.3331 17.9996 13.4283 17.0949 15.0473 15.6663C15.3806 15.3806 15.6663 15.0473 15.952 14.714H14.0949C13.8568 14.4282 13.6187 14.0949 13.4283 13.8092H16.6187C16.8091 13.5235 16.9996 13.1902 17.1425 12.8569H12.9045C12.7616 12.5711 12.6188 12.2378 12.5235 11.9045H17.4758C17.7615 10.9998 17.952 10.0474 17.952 9.04741C17.952 8.38076 17.8567 7.76173 17.7615 7.1427H12.2378C12.2854 6.80937 12.3807 6.52366 12.4759 6.19034H17.4282C17.3329 5.85701 17.1901 5.52368 17.0472 5.23798H12.8569C12.9997 4.90465 13.1902 4.61894 13.3806 4.28562H16.5711C16.3806 3.95229 16.1425 3.61897 15.8568 3.33326H14.0949C14.3806 2.99993 14.6663 2.71422 14.9997 2.42852C13.4283 0.95236 11.2855 0.0952358 8.95218 0.0952358C8.95218 -9.22432e-08 8.95218 0 8.90456 0Z" fill="#FF5050"/>
<path d="M0 9.00026C0 13.9525 3.99991 18.0001 8.99979 18.0001C11.3331 18.0001 13.4283 17.0953 15.0473 15.6668C15.3806 15.3811 15.6663 15.0477 15.952 14.7144H14.0949C13.8568 14.4287 13.6187 14.0954 13.4283 13.8097H16.6187C16.8091 13.524 16.9996 13.1906 17.1425 12.8573H12.9045C12.7616 12.5716 12.6188 12.2383 12.5235 11.905H17.4758C17.7615 11.0002 17.952 10.0479 17.952 9.04788C17.952 8.38123 17.8567 7.76219 17.7615 7.14316H12.2378C12.2854 6.80984 12.3807 6.52413 12.4759 6.1908H17.4282C17.3329 5.85748 17.1901 5.52415 17.0472 5.23844H12.8569C12.9997 4.90512 13.1902 4.61941 13.3806 4.28608H16.5711C16.3806 3.95276 16.1425 3.61943 15.8568 3.33372H14.0949C14.3806 3.0004 14.6663 2.71469 14.9997 2.42898C13.4283 0.952827 11.2855 0.0957031 8.95218 0.0957031H8.90456" fill="#E52836"/>
<path d="M9.00002 18.0001C11.3333 18.0001 13.4285 17.0953 15.0475 15.6668C15.3808 15.3811 15.6665 15.0477 15.9522 14.7144H14.0951C13.8571 14.4287 13.619 14.0954 13.4285 13.8097H16.6189C16.8094 13.524 16.9998 13.1906 17.1427 12.8573H12.9047C12.7618 12.5716 12.619 12.2383 12.5238 11.905H17.476C17.7617 11.0002 17.9522 10.0479 17.9522 9.04788C17.9522 8.38123 17.857 7.76219 17.7617 7.14316H12.238C12.2857 6.80984 12.3809 6.52413 12.4761 6.1908H17.4284C17.3332 5.85748 17.1903 5.52415 17.0475 5.23844H12.8571C12.9999 4.90512 13.1904 4.61941 13.3809 4.28608H16.5713C16.3808 3.95276 16.1427 3.61943 15.857 3.33372H14.0951C14.3809 3.0004 14.6666 2.71469 14.9999 2.42898C13.4285 0.952827 11.2857 0.0957031 8.9524 0.0957031H8.90479" fill="#CB2026"/>
<path d="M12.1907 11.2856L12.3336 10.4761C12.286 10.4761 12.1907 10.5237 12.0955 10.5237C11.7622 10.5237 11.7146 10.3332 11.7622 10.238L12.0479 8.57137H12.5717L12.7145 7.66663H12.2384L12.3336 7.09521H11.3812C11.3812 7.09521 10.8098 10.238 10.8098 10.6189C10.8098 11.1904 11.1431 11.4284 11.5717 11.4284C11.8574 11.4284 12.0955 11.3332 12.1907 11.2856Z" fill="white"/>
<path d="M12.5242 9.76138C12.5242 11.0947 13.4289 11.428 14.1908 11.428C14.9051 11.428 15.1908 11.2852 15.1908 11.2852L15.3812 10.3804C15.3812 10.3804 14.8575 10.6185 14.3813 10.6185C13.3337 10.6185 13.5241 9.85662 13.5241 9.85662H15.4765C15.4765 9.85662 15.6193 9.23759 15.6193 8.9995C15.6193 8.38046 15.286 7.61858 14.2384 7.61858C13.2384 7.52334 12.5242 8.57093 12.5242 9.76138ZM14.1908 8.38046C14.7146 8.38046 14.6194 8.9995 14.6194 9.04711H13.5718C13.5718 8.9995 13.667 8.38046 14.1908 8.38046Z" fill="white"/>
<path d="M20.2379 11.2854L20.4284 10.2379C20.4284 10.2379 19.9522 10.4759 19.6189 10.4759C18.9522 10.4759 18.6665 9.95214 18.6665 9.38073C18.6665 8.2379 19.2379 7.61886 19.9046 7.61886C20.3807 7.61886 20.7617 7.90457 20.7617 7.90457L20.9045 6.90459C20.9045 6.90459 20.3331 6.6665 19.8093 6.6665C18.7141 6.6665 17.6189 7.61886 17.6189 9.42835C17.6189 10.6188 18.1903 11.4283 19.3331 11.4283C19.7141 11.4283 20.2379 11.2854 20.2379 11.2854Z" fill="white"/>
<path d="M6.95328 7.52417C6.28663 7.52417 5.81045 7.71464 5.81045 7.71464L5.6676 8.52415C5.6676 8.52415 6.09616 8.33368 6.71519 8.33368C7.04852 8.33368 7.33422 8.38129 7.33422 8.667C7.33422 8.85747 7.28661 8.90509 7.28661 8.90509C7.28661 8.90509 7.0009 8.90509 6.85805 8.90509C6.04854 8.90509 5.1438 9.23842 5.1438 10.3336C5.1438 11.1908 5.71521 11.3812 6.04854 11.3812C6.71519 11.3812 7.0009 10.9527 7.04852 10.9527L7.0009 11.3336H7.85802L8.23897 8.71462C8.23897 7.57179 7.28661 7.52417 6.95328 7.52417ZM7.14375 9.66698C7.14375 9.80983 7.04852 10.5717 6.4771 10.5717C6.19139 10.5717 6.09616 10.3336 6.09616 10.1908C6.09616 9.95269 6.23901 9.61936 6.95328 9.61936C7.09614 9.66698 7.14375 9.66698 7.14375 9.66698Z" fill="white"/>
<path d="M9.14258 11.3803C9.38067 11.3803 10.5711 11.4279 10.5711 10.1422C10.5711 8.95174 9.42828 9.18983 9.42828 8.71365C9.42828 8.47556 9.61876 8.38033 9.95208 8.38033C10.0949 8.38033 10.6187 8.42795 10.6187 8.42795L10.7616 7.57082C10.7616 7.57082 10.4283 7.47559 9.85685 7.47559C9.14258 7.47559 8.42831 7.76129 8.42831 8.71365C8.42831 9.80887 9.61876 9.71363 9.61876 10.1422C9.61876 10.4279 9.28543 10.4755 9.04734 10.4755C8.61878 10.4755 8.19022 10.3327 8.19022 10.3327L8.04736 11.1898C8.09498 11.285 8.33307 11.3803 9.14258 11.3803Z" fill="white"/>
<path d="M28.1424 6.76221L27.952 8.04789C27.952 8.04789 27.571 7.57171 27.0472 7.57171C26.1901 7.57171 25.4282 8.61931 25.4282 9.85737C25.4282 10.6193 25.8092 11.4288 26.6187 11.4288C27.1901 11.4288 27.5234 11.0478 27.5234 11.0478L27.4758 11.3811H28.4282L29.1424 6.80983L28.1424 6.76221ZM27.7139 9.28596C27.7139 9.80976 27.4758 10.4764 26.952 10.4764C26.6187 10.4764 26.4282 10.1907 26.4282 9.71452C26.4282 8.95263 26.7615 8.47645 27.1901 8.47645C27.5234 8.47645 27.7139 8.71454 27.7139 9.28596Z" fill="white"/>
<path d="M1.76241 11.3326L2.33382 7.90406L2.42906 11.3326H3.09571L4.33378 7.90406L3.80998 11.3326H4.80996L5.57184 6.76123H4.00045L3.04809 9.57069L3.00047 6.76123H1.61955L0.857666 11.3326H1.76241Z" fill="white"/>
<path d="M16.5242 11.3331C16.8099 9.76171 16.8575 8.47602 17.5241 8.71411C17.6194 8.09508 17.7622 7.85699 17.8575 7.6189C17.8575 7.6189 17.8098 7.6189 17.667 7.6189C17.2384 7.6189 16.9051 8.19031 16.9051 8.19031L17.0003 7.66651H16.0956L15.4766 11.3807H16.5242V11.3331Z" fill="white"/>
<path d="M22.4289 7.52417C21.7622 7.52417 21.286 7.71464 21.286 7.71464L21.1432 8.52415C21.1432 8.52415 21.5717 8.33368 22.1908 8.33368C22.5241 8.33368 22.8098 8.38129 22.8098 8.667C22.8098 8.85747 22.7622 8.90509 22.7622 8.90509C22.7622 8.90509 22.4765 8.90509 22.3336 8.90509C21.5241 8.90509 20.6194 9.23842 20.6194 10.3336C20.6194 11.1908 21.1908 11.3812 21.5241 11.3812C22.1908 11.3812 22.4765 10.9527 22.5241 10.9527L22.4765 11.3336H23.3336L23.7146 8.71462C23.7622 7.57179 22.7622 7.52417 22.4289 7.52417ZM22.667 9.66698C22.667 9.80983 22.5717 10.5717 22.0003 10.5717C21.7146 10.5717 21.6194 10.3336 21.6194 10.1908C21.6194 9.95269 21.7622 9.61936 22.4765 9.61936C22.6193 9.66698 22.6193 9.66698 22.667 9.66698Z" fill="white"/>
<path d="M24.5237 11.3331C24.8094 9.76171 24.857 8.47602 25.5236 8.71411C25.6189 8.09508 25.7617 7.85699 25.857 7.6189C25.857 7.6189 25.8094 7.6189 25.6665 7.6189C25.2379 7.6189 24.9046 8.19031 24.9046 8.19031L24.9998 7.66651H24.0951L23.4761 11.3807H24.5237V11.3331Z" fill="white"/>
<path d="M10.7151 10.6189C10.7151 11.1904 11.0484 11.4284 11.477 11.4284C11.8103 11.4284 12.096 11.3332 12.1912 11.2856L12.3341 10.4761C12.2865 10.4761 12.1912 10.5237 12.096 10.5237C11.7627 10.5237 11.7151 10.3332 11.7627 10.238L12.0484 8.57137H12.5722L12.715 7.66663H12.2389L12.3341 7.09521" fill="#DCE5E5"/>
<path d="M13 9.76138C13 11.0947 13.4286 11.428 14.1904 11.428C14.9047 11.428 15.1904 11.2852 15.1904 11.2852L15.3809 10.3804C15.3809 10.3804 14.8571 10.6185 14.3809 10.6185C13.3333 10.6185 13.5238 9.85662 13.5238 9.85662H15.4761C15.4761 9.85662 15.619 9.23759 15.619 8.9995C15.619 8.38046 15.2857 7.61858 14.2381 7.61858C13.2381 7.52334 13 8.57093 13 9.76138ZM14.1904 8.38046C14.7142 8.38046 14.8095 8.9995 14.8095 9.04711H13.5714C13.5714 8.9995 13.6667 8.38046 14.1904 8.38046Z" fill="#DCE5E5"/>
<path d="M20.2375 11.2854L20.428 10.2379C20.428 10.2379 19.9518 10.4759 19.6185 10.4759C18.9519 10.4759 18.6661 9.95214 18.6661 9.38073C18.6661 8.2379 19.2376 7.61886 19.9042 7.61886C20.3804 7.61886 20.7613 7.90457 20.7613 7.90457L20.9042 6.90459C20.9042 6.90459 20.3328 6.6665 19.809 6.6665C18.7138 6.6665 18.0947 7.61886 18.0947 9.42835C18.0947 10.6188 18.19 11.4283 19.3328 11.4283C19.7137 11.4283 20.2375 11.2854 20.2375 11.2854Z" fill="#DCE5E5"/>
<path d="M5.6676 8.57126C5.6676 8.57126 6.09616 8.38078 6.71519 8.38078C7.04852 8.38078 7.33422 8.4284 7.33422 8.71411C7.33422 8.90458 7.28661 8.9522 7.28661 8.9522C7.28661 8.9522 7.0009 8.9522 6.85805 8.9522C6.04854 8.9522 5.1438 9.28553 5.1438 10.3807C5.1438 11.2379 5.71521 11.4283 6.04854 11.4283C6.71519 11.4283 7.0009 10.9998 7.04852 10.9998L7.0009 11.3807H7.85802L8.23897 8.76173C8.23897 7.66651 7.28661 7.6189 6.90566 7.6189L5.6676 8.57126ZM7.61993 9.66647C7.61993 9.80932 7.04852 10.5712 6.4771 10.5712C6.19139 10.5712 6.09616 10.3331 6.09616 10.1903C6.09616 9.95218 6.23901 9.61885 6.95328 9.61885C7.09614 9.66647 7.61993 9.66647 7.61993 9.66647Z" fill="#DCE5E5"/>
<path d="M8.09521 11.285C8.09521 11.285 8.38092 11.3803 9.19043 11.3803C9.42852 11.3803 10.619 11.4279 10.619 10.1422C10.619 8.95174 9.47614 9.18983 9.47614 8.71365C9.47614 8.47556 9.66661 8.38033 9.99993 8.38033C10.1428 8.38033 10.6666 8.42795 10.6666 8.42795L10.8094 7.57082C10.8094 7.57082 10.4761 7.47559 9.9047 7.47559C9.19043 7.47559 8.95234 7.76129 8.95234 8.71365C8.95234 9.80887 9.66661 9.71363 9.66661 10.1422C9.66661 10.4279 9.33328 10.4755 9.09519 10.4755" fill="#DCE5E5"/>
<path d="M27.9526 8.04715C27.9526 8.04715 27.5717 7.57097 27.0479 7.57097C26.1908 7.57097 25.9051 8.61856 25.9051 9.85663C25.9051 10.6185 25.8098 11.428 26.6193 11.428C27.1908 11.428 27.5241 11.0471 27.5241 11.0471L27.4765 11.3804H28.4288L29.1431 6.80908L27.9526 8.04715ZM27.905 9.28522C27.905 9.80901 27.4765 10.4757 26.9527 10.4757C26.6193 10.4757 26.4289 10.19 26.4289 9.71378C26.4289 8.95189 26.7622 8.47571 27.1908 8.47571C27.5241 8.47571 27.905 8.7138 27.905 9.28522Z" fill="#DCE5E5"/>
<path d="M1.76241 11.3326L2.33382 7.90406L2.42906 11.3326H3.09571L4.33378 7.90406L3.80998 11.3326H4.80996L5.57184 6.76123H4.3814L3.04809 9.57069L3.00047 6.76123H2.47668L0.857666 11.3326H1.76241Z" fill="#DCE5E5"/>
<path d="M15.5239 11.3331H16.5239C16.8096 9.76171 16.8572 8.47602 17.5239 8.71411C17.6191 8.09508 17.762 7.85699 17.8572 7.6189C17.8572 7.6189 17.8096 7.6189 17.6667 7.6189C17.2382 7.6189 16.9048 8.19031 16.9048 8.19031L17.0001 7.66651" fill="#DCE5E5"/>
<path d="M21.1432 8.57126C21.1432 8.57126 21.5717 8.38078 22.1908 8.38078C22.5241 8.38078 22.8098 8.4284 22.8098 8.71411C22.8098 8.90458 22.7622 8.9522 22.7622 8.9522C22.7622 8.9522 22.4765 8.9522 22.3336 8.9522C21.5241 8.9522 20.6194 9.28553 20.6194 10.3807C20.6194 11.2379 21.1908 11.4283 21.5241 11.4283C22.1908 11.4283 22.4765 10.9998 22.5241 10.9998L22.4765 11.3807H23.3336L23.7146 8.76173C23.7146 7.66651 22.7622 7.6189 22.3812 7.6189L21.1432 8.57126ZM23.0955 9.66647C23.0955 9.80932 22.5241 10.5712 21.9527 10.5712C21.667 10.5712 21.5717 10.3331 21.5717 10.1903C21.5717 9.95218 21.7146 9.61885 22.4289 9.61885C22.6193 9.66647 23.0955 9.66647 23.0955 9.66647Z" fill="#DCE5E5"/>
<path d="M23.5239 11.3331H24.5239C24.8096 9.76171 24.8572 8.47602 25.5239 8.71411C25.6191 8.09508 25.762 7.85699 25.8572 7.6189C25.8572 7.6189 25.8096 7.6189 25.6667 7.6189C25.2382 7.6189 24.9048 8.19031 24.9048 8.19031L25.0001 7.66651" fill="#DCE5E5"/>
</svg>
