<svg width="24" height="24" viewBox="0 0 24 24" fill="none" xmlns="http://www.w3.org/2000/svg">
<path d="M23.5038 10.6804L18.6679 14.8454C18.3927 15.0928 18.2354 15.5052 18.3534 15.8763L19.8081 22.1443C20.0046 23.1753 19.297 24 18.4713 24C18.2354 24 17.9602 23.9175 17.7243 23.7526L12.456 20.3299C12.1415 20.1237 11.7483 20.1237 11.4338 20.3299L6.2048 23.7113C5.96891 23.8763 5.6937 23.9588 5.45781 23.9588C4.63217 23.9588 3.84586 23.134 4.12107 22.1031L5.57575 15.8351C5.65438 15.4639 5.53644 15.0516 5.26123 14.8041L0.504014 10.6804C-0.478881 9.81444 0.0715405 8.12372 1.32965 8.04125L7.50222 7.58764C7.85607 7.5464 8.17059 7.29898 8.32786 6.96908L10.6868 0.948462C10.9227 0.329905 11.4731 7.62939e-06 12.0235 7.62939e-06C12.574 7.62939e-06 13.1244 0.329905 13.3603 0.948462L15.7192 6.96908C15.8765 7.34021 16.191 7.58764 16.5449 7.58764L22.7174 8.04125C23.8969 8.12372 24.4867 9.81444 23.5038 10.6804Z" fill="black"/>
</svg>
