<svg width="33" height="12" viewBox="0 0 33 12" fill="none" xmlns="http://www.w3.org/2000/svg">
<path fill-rule="evenodd" clip-rule="evenodd" d="M32.3999 7.89244H30.731C30.5644 7.89244 30.4537 7.89874 30.3605 7.96231C30.2639 8.02495 30.2267 8.11791 30.2267 8.24062C30.2267 8.38654 30.3083 8.4858 30.4269 8.52873C30.5235 8.56267 30.6273 8.57258 30.7798 8.57258L31.2761 8.586C31.7769 8.59848 32.1112 8.68538 32.315 8.89732C32.3521 8.92683 32.3744 8.95995 32.3999 8.99308V7.89244ZM32.3999 10.4426C32.1775 10.771 31.7441 10.9374 31.1573 10.9374H29.389V10.108H31.1502C31.3249 10.108 31.4471 10.0847 31.5207 10.0122C31.5845 9.95236 31.629 9.86546 31.629 9.7599C31.629 9.64722 31.5845 9.55775 31.5171 9.5041C31.4507 9.44508 31.354 9.41825 31.1945 9.41825C30.3347 9.38874 29.2621 9.44508 29.2621 8.22103C29.2621 7.65998 29.615 7.06941 30.5759 7.06941H32.3998V6.2998H30.7052C30.1938 6.2998 29.8223 6.42345 29.5592 6.61567V6.2998H27.0526C26.6517 6.2998 26.1812 6.40012 25.9587 6.61567V6.2998H21.4826V6.61567C21.1263 6.35626 20.5252 6.2998 20.2478 6.2998H17.2953V6.61567C17.0135 6.34016 16.3867 6.2998 16.0047 6.2998H12.7004L11.9443 7.12587L11.2361 6.2998H6.30005V11.6971H11.1432L11.9223 10.858L12.6563 11.6971L15.6416 11.6998V10.4301H15.9351C16.3312 10.4363 16.7983 10.4202 17.2105 10.2403V11.697H19.6728V10.2903H19.7916C19.9432 10.2903 19.9581 10.2966 19.9581 10.4495V11.6969H27.4383C27.9132 11.6969 28.4096 11.5742 28.6845 11.3515V11.6969H31.0571C31.5509 11.6969 32.0331 11.627 32.3999 11.4481V10.4426ZM28.7473 8.89707C28.9256 9.08335 29.0212 9.3185 29.0212 9.7166C29.0212 10.5487 28.5062 10.9372 27.5827 10.9372H25.7992V10.1077H27.5755C27.7492 10.1077 27.8724 10.0845 27.9496 10.0119C28.0125 9.9521 28.0577 9.8652 28.0577 9.75964C28.0577 9.64697 28.0088 9.5575 27.946 9.50384C27.876 9.44482 27.7794 9.418 27.6199 9.418C26.7636 9.38848 25.6912 9.44482 25.6912 8.22077C25.6912 7.65972 26.0404 7.06916 27.0003 7.06916H28.8361V7.89242H27.1563C26.9898 7.89242 26.8815 7.89872 26.7895 7.96229C26.6892 8.02493 26.652 8.1179 26.652 8.2406C26.652 8.38652 26.7371 8.48579 26.8523 8.52871C26.9489 8.56265 27.0527 8.57257 27.2087 8.57257L27.7016 8.58598C28.1987 8.59823 28.5399 8.68501 28.7473 8.89707ZM20.4847 8.65804C20.3622 8.7314 20.2108 8.7377 20.0326 8.7377H18.9202V7.86895H20.0477C20.2108 7.86895 20.3739 7.87245 20.4847 7.93882C20.6034 8.00145 20.6743 8.12125 20.6743 8.28676C20.6743 8.45228 20.6034 8.5856 20.4847 8.65804ZM21.0378 9.13969C21.2417 9.21562 21.4083 9.35174 21.4864 9.46442C21.6157 9.65326 21.6344 9.82951 21.6381 10.1705V10.9373H20.7188V10.4533C20.7188 10.2206 20.741 9.87605 20.5708 9.69619C20.437 9.55762 20.233 9.52449 19.899 9.52449H18.9204V10.9373H18.0003V7.06916H20.1144C20.5779 7.06916 20.9156 7.08981 21.2161 7.25171C21.5051 7.42795 21.6869 7.6694 21.6869 8.11066C21.6867 8.72805 21.2789 9.04311 21.0378 9.13969ZM22.1946 7.06916H25.2508V7.8691H23.1065V8.57234H25.1984V9.36154H23.1065V10.1311L25.2508 10.1346V10.9373H22.1946V7.06916ZM16.0162 8.854H14.8329V7.86895H16.0269C16.3574 7.86895 16.5869 8.00495 16.5869 8.34322C16.5869 8.67775 16.3681 8.854 16.0162 8.854ZM13.9211 10.5857L12.5152 9.01011L13.9211 7.48454V10.5857ZM10.2903 10.131H8.03897V9.36139H10.0493V8.57219H8.03897V7.86895H10.3347L11.3363 8.99618L10.2903 10.131ZM17.5703 8.34348C17.5703 9.418 16.7762 9.63985 15.9758 9.63985H14.8332V10.9373H13.0534L11.9259 9.65676L10.7541 10.9373H7.12707V7.06916H10.8099L11.9365 8.33707L13.1013 7.06916H16.0272C16.7539 7.06916 17.5703 7.27223 17.5703 8.34348Z" fill="#0077A6"/>
<path fill-rule="evenodd" clip-rule="evenodd" d="M2.97787 2.96769L2.3423 1.42499L1.71036 2.96769H2.97787ZM16.9796 2.35323C16.852 2.43038 16.701 2.43295 16.5202 2.43295H15.3922V1.57341H16.5356C16.6974 1.57341 16.8663 1.58065 16.9759 1.64321C17.0964 1.69959 17.1709 1.81958 17.1709 1.98532C17.1709 2.15445 17.1 2.29055 16.9796 2.35323ZM25.0271 2.96769L24.3845 1.42499L23.7454 2.96769H25.0271ZM10.0261 4.63698H9.07415L9.07063 1.60621L7.72415 4.63698H6.90883L5.55883 1.60353V4.63698H3.67016L3.31336 3.77383H1.37993L1.01949 4.63698H0.010945L1.67381 0.76722H3.05346L4.63277 4.43109V0.76722H6.14835L7.36359 3.39239L8.47994 0.76722H10.026V4.63698H10.0261ZM13.8202 4.63698H10.7181V0.76722H13.8202V1.57306H11.6467V2.27059H13.768V3.06382H11.6467V3.83663H13.8202V4.63698ZM18.1938 1.80942C18.1938 2.42641 17.7804 2.74517 17.5395 2.84088C17.7427 2.91792 17.9162 3.05402 17.9988 3.16677C18.13 3.35924 18.1526 3.53117 18.1526 3.87678V4.63698H17.216L17.2125 4.14897C17.2125 3.91612 17.2348 3.58124 17.0659 3.39507C16.9302 3.25898 16.7234 3.22945 16.3891 3.22945H15.3922V4.63698H14.4637V0.76722H16.5995C17.0741 0.76722 17.4237 0.779709 17.7239 0.952572C18.0177 1.12544 18.1938 1.37779 18.1938 1.80942ZM19.6798 4.63698H18.7323V0.76722H19.6798V4.63698ZM30.6721 4.63698H29.3562L27.5961 1.7325V4.63698H25.705L25.3436 3.77383H23.4146L23.064 4.63698H21.9775C21.5261 4.63698 20.9546 4.53754 20.631 4.20897C20.3046 3.8804 20.1348 3.43534 20.1348 2.73163C20.1348 2.15772 20.2363 1.63306 20.6354 1.21846C20.9356 0.909619 21.4058 0.76722 22.0457 0.76722H22.9446V1.59641H22.0645C21.7256 1.59641 21.5343 1.6466 21.35 1.82564C21.1917 1.98859 21.083 2.29661 21.083 2.70222C21.083 3.11681 21.1658 3.41573 21.3384 3.61101C21.4813 3.76415 21.7411 3.8106 21.9855 3.8106H22.4026L23.7113 0.767336H25.1027L26.6749 4.42759V0.767336H28.0887L29.721 3.46242V0.767336H30.6721V4.63698ZM0.000117177 5.39718H1.5867L1.94444 4.53764H2.74535L3.10215 5.39718H6.22388V4.74004L6.50253 5.39998H8.12309L8.40174 4.73023V5.39718H16.1598L16.1562 3.98625H16.3063C16.4114 3.98987 16.4421 3.99956 16.4421 4.17242V5.39718H20.4546V5.06872C20.7782 5.24147 21.2816 5.39718 21.944 5.39718H23.6321L23.9934 4.53764H24.7943L25.1476 5.39718H28.4005V4.58071L28.8931 5.39718H31.4999V0H28.9201V0.637413L28.5588 0H25.9117V0.637413L25.5799 0H22.0043C21.4057 0 20.8796 0.083222 20.4546 0.315146V0H17.9871V0.315146C17.7166 0.076102 17.3481 0 16.9383 0H7.92354L7.31867 1.394L6.69751 0H3.85807V0.637413L3.54614 0H1.12455L0 2.56611V5.39718H0.000117177Z" fill="#0077A6"/>
</svg>
